<!-- Generated by IcoMoon.io -->
<svg version="1.1" xmlns="http://www.w3.org/2000/svg" width="512" height="512" viewBox="0 0 512 512" focusable="false" aria-hidden="true" fill="currentColor">
<path d="M269.505 472.002c-0.968 0-1.951-0.105-2.928-0.322-6.179-1.37-10.577-6.851-10.577-13.18v-202.5h-202.5c-6.328 0-11.809-4.396-13.18-10.577-1.37-6.178 1.735-12.481 7.471-15.156l405-189c5.146-2.399 11.24-1.327 15.255 2.688s5.087 10.111 2.688 15.255l-189 405c-2.253 4.827-7.076 7.793-12.23 7.793zM114.351 229h155.149c7.457 0 13.5 6.044 13.5 13.5v155.149l147.567-316.216-316.216 147.566z"></path>
</svg>
