<!-- Generated by IcoMoon.io -->
<svg version="1.1" xmlns="http://www.w3.org/2000/svg" width="1024" height="1024" viewBox="0 0 1024 1024" focusable="false" aria-hidden="true" fill="currentColor">
<path d="M864 432h-723.334c-14.727 0-26.665 11.938-26.665 26.665 0 81.321 16.587 161.062 47.963 230.588 30.852 68.363 75.062 125.137 127.848 164.183 4.588 3.394 10.148 5.229 15.86 5.229h-111.671c-14.727 0-26.665 11.937-26.665 26.665s11.938 26.665 26.665 26.665h533.335c14.729 0 26.665-11.937 26.665-26.665s-11.937-26.665-26.665-26.665h-111.671c5.712 0 11.267-1.835 15.86-5.229 48.588-35.938 89.902-86.912 120.229-148.106h5.587c84.502 0 135.425-29.498 163.263-54.244 33.437-29.723 53.402-70.506 53.402-109.087 0-60.656-49.344-110-110-110zM880.736 606.244c-17.962 15.967-50.087 34.671-103.744 38.41 16.479-48.085 26.444-99.771 29.402-152.654h57.61c27.569 0 50 22.431 50 50 0 16.763-8.737 42.442-33.263 64.244z"></path>
<path d="M354 378.665c-14.727 0-26.665-11.938-26.665-26.665v-106.665c0-14.727 11.938-26.665 26.665-26.665s26.665 11.938 26.665 26.665v106.665c0 14.727-11.937 26.665-26.665 26.665z"></path>
<path d="M460.665 378.665c-14.727 0-26.665-11.938-26.665-26.665v-213.335c0-14.727 11.938-26.665 26.665-26.665s26.665 11.938 26.665 26.665v213.335c0 14.727-11.937 26.665-26.665 26.665z"></path>
<path d="M567.335 378.665c-14.729 0-26.665-11.938-26.665-26.665v-106.665c0-14.727 11.937-26.665 26.665-26.665s26.665 11.938 26.665 26.665v106.665c0 14.727-11.937 26.665-26.665 26.665z"></path>
</svg>
