<!-- Generated by IcoMoon.io -->
<svg version="1.1" xmlns="http://www.w3.org/2000/svg" width="1024" height="1024" viewBox="0 0 1024 1024" focusable="false" aria-hidden="true" fill="currentColor">
<path d="M861.163 428.232h-712.563c-14.508 0-26.265 11.759-26.265 26.265 0 80.11 16.34 158.66 47.247 227.153 30.393 67.342 73.942 123.27 125.945 161.738 4.519 3.342 9.996 5.152 15.626 5.152h-110.008c-14.508 0-26.265 11.759-26.265 26.265s11.759 26.265 26.265 26.265h525.391c14.511 0 26.265-11.759 26.265-26.265s-11.759-26.265-26.265-26.265h-110.008c5.627 0 11.097-1.81 15.626-5.152 47.862-35.401 88.565-85.615 118.441-145.902h5.504c83.245 0 133.409-29.058 160.83-53.435 32.938-29.28 52.608-69.458 52.608-107.459 0-59.755-48.608-108.363-108.363-108.363zM719.247 638.395h-510.812c-18.734-48.211-30.18-101.77-32.914-157.619h576.644c-2.741 55.841-14.176 109.405-32.914 157.619zM877.654 599.884c-17.694 15.727-49.34 34.154-102.198 37.839 16.235-47.37 26.049-98.285 28.965-150.383h56.753c27.157 0 49.256 22.099 49.256 49.256 0 16.512-8.607 41.808-32.766 63.286z"></path>
<path d="M358.76 375.701c-14.508 0-26.265-11.759-26.265-26.265v-105.075c0-14.508 11.759-26.265 26.265-26.265s26.265 11.759 26.265 26.265v105.075c0 14.508-11.759 26.265-26.265 26.265z"></path>
<path d="M463.841 375.701c-14.508 0-26.265-11.759-26.265-26.265v-210.156c0-14.508 11.759-26.265 26.265-26.265s26.265 11.759 26.265 26.265v210.156c0 14.508-11.759 26.265-26.265 26.265z"></path>
<path d="M568.916 375.701c-14.511 0-26.265-11.759-26.265-26.265v-105.075c0-14.508 11.759-26.265 26.265-26.265s26.265 11.759 26.265 26.265v105.075c0 14.508-11.759 26.265-26.265 26.265z"></path>
</svg>
