<!-- Generated by IcoMoon.io -->
<svg version="1.1" xmlns="http://www.w3.org/2000/svg" width="1024" height="1024" viewBox="0 0 1024 1024" focusable="false" aria-hidden="true" fill="currentColor">
<path d="M512 80c-238.586 0-432 193.415-432 432s193.415 432 432 432 432-193.415 432-432-193.415-432-432-432zM377 158.852v29.148l-135 135h-57.416c43.136-74.568 111.020-133.016 192.416-164.148zM512 620l-192.957 217.078c-7.871-4.681-15.554-9.639-23.043-14.864v-175.217l-108-81v-135c0-14.912 12.088-27 27-27h81c0 0 81 108 216 135v81zM838.671 494.064c-13.357-44.918-24.894-49.287-83.671-69.269v-0.002c-20.103-6.305-39.029-17.405-54.959-33.335-52.718-52.719-52.718-138.2 0-190.919 3.545-3.543 7.248-6.818 11.066-9.882 107.377 66.677 178.89 185.646 178.89 321.341 0 69.99-19.045 135.523-52.201 191.735 13.899-89.852 8.773-161.852 0.872-209.669z"></path>
</svg>
