<!-- Generated by IcoMoon.io -->
<svg version="1.1" xmlns="http://www.w3.org/2000/svg" width="1024" height="1024" viewBox="0 0 1024 1024" focusable="false" aria-hidden="true" fill="currentColor">
<path d="M512 80c-238.586 0-432 193.415-432 432s193.415 432 432 432 432-193.415 432-432-193.415-432-432-432zM512 890.002c-53.123 0-103.671-10.977-149.54-30.757l196.718-221.306c4.391-4.943 6.818-11.327 6.818-17.94v-81c0-14.914-12.086-27-27-27-95.335 0-195.924-99.107-196.909-100.091-5.063-5.063-11.93-7.909-19.091-7.909h-108c-14.911 0-27 12.089-27 27v162c0 10.227 5.778 19.577 14.925 24.152l93.075 46.536v158.531c-97.917-68.306-162-181.773-162-310.217 0-57.979 13.070-112.901 36.398-162h98.602c7.162 0 14.027-2.847 19.093-7.907l108-108c5.063-5.063 7.907-11.93 7.907-19.093v-65.317c34.223-10.189 70.468-15.683 108-15.683 59.406 0 115.599 13.72 165.612 38.138-3.497 2.957-6.899 6.044-10.166 9.311-30.601 30.6-47.451 71.278-47.451 114.549s16.85 83.955 47.451 114.549c30.74 30.74 71.903 47.475 114.44 47.47 2.671 0 5.352-0.068 8.033-0.201 11.654 43.707 32.697 157.491-7.089 314.159-0.374 1.472-0.587 2.943-0.712 4.41-68.619 70.101-164.28 113.616-270.122 113.616z"></path>
</svg>
