<!-- Generated by IcoMoon.io -->
<svg version="1.1" xmlns="http://www.w3.org/2000/svg" width="512" height="512" viewBox="0 0 512 512" focusable="false" aria-hidden="true" fill="currentColor">
</g>
<path d="M479.942 96c0.020 0.017 0.041 0.038 0.058 0.058v319.885c-0.017 0.020-0.038 0.041-0.058 0.058h-447.885c-0.020-0.017-0.041-0.038-0.057-0.058v-319.886c0.017-0.020 0.038-0.041 0.057-0.057h447.885zM480 64h-448c-17.6 0-32 14.4-32 32v320c0 17.6 14.4 32 32 32h448c17.6 0 32-14.4 32-32v-320c0-17.6-14.4-32-32-32v0z"></path>
<path d="M186.587 312.739l-96 69.817c-3.196 2.325-6.901 3.444-10.572 3.444-5.563 0-11.049-2.57-14.572-7.414-5.847-8.039-4.070-19.297 3.97-25.145l96-69.818c8.039-5.846 19.297-4.068 25.144 3.971 5.847 8.040 4.070 19.299-3.97 25.145z"></path>
<path d="M446.558 378.587c-3.521 4.845-9.010 7.414-14.571 7.414-3.672 0-7.376-1.119-10.572-3.442l-96.003-69.82c-8.040-5.848-9.817-17.104-3.971-25.146 5.846-8.041 17.104-9.815 25.145-3.971l96.003 69.819c8.038 5.849 9.815 17.106 3.969 25.146z"></path>
<path d="M442.587 158.557l-176 128c-3.155 2.297-6.871 3.443-10.587 3.443s-7.431-1.146-10.587-3.441l-176-128c-8.040-5.847-9.817-17.104-3.97-25.144s17.106-9.816 25.144-3.97l165.413 120.298 165.413-120.3c8.038-5.848 19.296-4.069 25.145 3.97 5.846 8.040 4.069 19.297-3.971 25.144v0z"></path>
</svg>
