<!-- Generated by IcoMoon.io -->
<svg version="1.1" xmlns="http://www.w3.org/2000/svg" width="512" height="512" viewBox="0 0 512 512" focusable="false" aria-hidden="true" fill="currentColor">
</g>
<path d="M480 64h-448c-17.6 0-32 14.4-32 32v320c0 17.6 14.4 32 32 32h448c17.6 0 32-14.4 32-32v-320c0-17.6-14.4-32-32-32zM186.587 312.739l-96 69.818c-3.196 2.324-6.901 3.443-10.572 3.443-5.563 0-11.049-2.57-14.572-7.414-5.847-8.039-4.070-19.297 3.97-25.145l96-69.818c8.039-5.846 19.297-4.069 25.144 3.971s4.070 19.298-3.97 25.145zM446.558 378.587c-3.522 4.844-9.010 7.414-14.572 7.414-3.672 0-7.376-1.119-10.572-3.443l-96.003-69.82c-8.040-5.848-9.817-17.104-3.971-25.145s17.105-9.816 25.145-3.971l96.003 69.82c8.039 5.848 9.816 17.105 3.97 25.145zM442.587 158.557l-176 128c-3.155 2.296-6.871 3.443-10.587 3.443s-7.431-1.147-10.587-3.442l-176-128c-8.040-5.847-9.817-17.104-3.97-25.144s17.106-9.816 25.144-3.97l165.413 120.299 165.413-120.3c8.038-5.848 19.296-4.069 25.145 3.97 5.846 8.040 4.069 19.297-3.971 25.144z"></path>
</svg>
