<!-- Generated by IcoMoon.io -->
<svg version="1.1" xmlns="http://www.w3.org/2000/svg" width="1024" height="1024" viewBox="0 0 1024 1024" focusable="false" aria-hidden="true" fill="currentColor">
<path d="M965.273 193.506c-93.438-70.808-237.229-113.083-384.64-113.083-182.335 0-330.912 63.661-407.632 174.66-36.033 52.13-55.96 113.863-59.233 183.479-3.491 74.26 12.125 157.934 46.402 248.696-31.618 77.089-48.823 156.454-48.823 229.708 0 14.91 12.088 26.999 26.999 26.999s26.999-12.086 26.999-26.999c0-64.697 15.8-136.891 44.19-207.059 79.49 14.697 146.441 21.887 203.873 21.887 99.283 0 169.89-21.48 222.214-67.599 46.883-41.323 72.723-96.841 100.079-155.621 41.784-89.773 89.139-191.525 226.659-270.107 7.87-4.497 12.962-12.647 13.546-21.696 0.584-9.051-3.41-17.787-10.636-23.264zM686.75 485.785c-25.985 55.833-48.426 104.052-86.828 137.902-41.882 36.916-101.148 54.109-186.512 54.109-51 0-110.52-6.115-180.949-18.607 12.871-25.717 27.383-50.828 43.415-74.821 37.379-55.937 81.284-104.278 130.494-143.678 53.154-42.557 111.153-73.448 172.384-91.819 14.283-4.283 22.385-19.335 18.101-33.616s-19.33-22.39-33.616-18.101c-67.894 20.367-132.027 54.479-190.613 101.385-53.534 42.86-101.188 95.289-141.643 155.829-13.635 20.404-26.205 41.406-37.687 62.793-19.459-63.983-28.085-123.039-25.594-176.068 2.793-59.368 19.517-111.624 49.716-155.313 34.336-49.673 85.49-88.176 152.044-114.433 61.244-24.163 134.267-36.931 211.173-36.931 117.282 0 235.233 29.968 318.573 79.67-124.973 83.731-173.117 187.18-212.451 271.698z"></path>
</svg>
