<!-- Generated by IcoMoon.io -->
<svg version="1.1" xmlns="http://www.w3.org/2000/svg" width="1024" height="1024" viewBox="0 0 1024 1024" focusable="false" aria-hidden="true" fill="currentColor">
<path d="M965.273 193.506c-93.438-70.808-237.229-113.083-384.64-113.083-182.335 0-330.912 63.661-407.632 174.66-36.033 52.13-55.96 113.863-59.233 183.479-2.914 61.989 7.494 130.541 30.949 204.295 80.044-239.929 303.575-427.832 561.271-427.832 0 0-241.146 63.472-392.754 260.017-0.094 0.118-2.104 2.605-5.579 7.338-30.44 40.733-56.98 87.037-76.842 139.483-33.638 80.005-64.779 189.783-64.779 322.102h107.99c0 0-16.394-103.117 12.115-221.71 47.155 6.376 89.309 9.539 127.272 9.539 99.283 0 169.89-21.48 222.214-67.599 46.883-41.323 72.723-96.841 100.079-155.621 41.784-89.773 89.139-191.525 226.659-270.107 7.87-4.497 12.962-12.647 13.546-21.696s-3.41-17.785-10.636-23.262z"></path>
</svg>
