<!-- Generated by IcoMoon.io -->
<svg version="1.1" xmlns="http://www.w3.org/2000/svg" height="24" viewBox="0 0 24 24" width="24" focusable="false" aria-hidden="true" fill="currentColor">
</g>
<path d="M5.99 5.99c.39-.391.39-1.024 0-1.415-.39-.39-1.024-.39-1.415 0C3.6 5.55 2.827 6.708 2.3 7.982 1.772 9.256 1.5 10.622 1.5 12c0 1.379.272 2.744.8 4.018.527 1.274 1.3 2.432 2.275 3.407.39.39 1.024.39 1.415 0 .39-.39.39-1.024 0-1.415-.79-.789-1.416-1.726-1.843-2.757C3.72 14.222 3.5 13.116 3.5 12s.22-2.222.647-3.253C4.574 7.716 5.2 6.78 5.99 5.99Zm2.828 1.414c.39.39.39 1.023 0 1.414-.418.418-.75.914-.975 1.46-.227.546-.343 1.13-.343 1.722 0 .59.116 1.176.343 1.722.226.546.557 1.042.975 1.46.39.39.39 1.023 0 1.414-.39.39-1.024.39-1.414 0-.604-.604-1.083-1.32-1.41-2.109C5.669 13.698 5.5 12.853 5.5 12c0-.854.168-1.7.495-2.488.326-.788.805-1.505 1.409-2.108.39-.391 1.024-.391 1.414 0Zm6.364 0c.39-.391 1.024-.391 1.414 0C17.816 8.623 18.5 10.276 18.5 12c0 1.724-.685 3.377-1.904 4.596-.39.39-1.024.39-1.414 0-.39-.39-.39-1.024 0-1.414.844-.844 1.318-1.989 1.318-3.182 0-1.194-.474-2.338-1.318-3.182-.39-.39-.39-1.024 0-1.414Zm2.828-2.829c.39-.39 1.024-.39 1.415 0C21.394 6.545 22.5 9.215 22.5 12s-1.106 5.456-3.075 7.425c-.39.39-1.024.39-1.415 0-.39-.39-.39-1.024 0-1.415 1.595-1.594 2.49-3.756 2.49-6.01s-.895-4.416-2.49-6.01c-.39-.391-.39-1.024 0-1.415ZM12 14.5c1.38 0 2.5-1.12 2.5-2.5S13.38 9.5 12 9.5 9.5 10.62 9.5 12s1.12 2.5 2.5 2.5Z"></path>
</svg>