<!-- Generated by IcoMoon.io -->
<svg version="1.1" xmlns="http://www.w3.org/2000/svg" width="1280" height="1024" viewBox="0 0 1280 1024" focusable="false" aria-hidden="true" fill="currentColor">
<path d="M1124.214 135.39v309.36c0 7.935-7.162 25.23-12.776 30.841l-390.735 390.735-327.425-327.425 390.735-390.735c5.609-5.609 22.906-12.776 30.841-12.776h309.36zM1137.665 81.59h-322.81c-22.195 0-53.189 12.839-68.883 28.532l-400.246 400.246c-15.693 15.693-15.693 41.372 0 57.067l346.448 346.448c7.847 7.847 18.187 11.77 28.532 11.77s20.688-3.921 28.532-11.77l400.248-400.248c15.689-15.691 28.528-46.69 28.528-68.883v-322.81c0-22.195-18.16-40.35-40.35-40.35v0z"></path>
<path d="M1016.61 323.695c0 44.569-36.131 80.7-80.7 80.7s-80.7-36.131-80.7-80.7c0-44.569 36.131-80.7 80.7-80.7s80.7 36.131 80.7 80.7z"></path>
<path d="M635.387 81.59h-35.737c-22.195 0-53.189 12.839-68.883 28.532l-400.246 400.246c-15.693 15.693-15.693 41.372 0 57.067l346.448 346.448c7.847 7.847 18.188 11.77 28.532 11.77s20.688-3.921 28.532-11.77l9.509-9.509-365.466-365.466 457.312-457.31z"></path>
</svg>
