<!-- Generated by IcoMoon.io -->
<svg version="1.1" xmlns="http://www.w3.org/2000/svg" width="1280" height="1024" viewBox="0 0 1280 1024" focusable="false" aria-hidden="true" fill="currentColor">
<path d="M1137.665 81.59h-322.81c-22.195 0-53.189 12.839-68.883 28.532l-400.246 400.246c-15.693 15.693-15.693 41.372 0 57.067l346.448 346.448c15.693 15.693 41.372 15.693 57.067 0l400.248-400.248c15.691-15.691 28.53-46.69 28.53-68.883v-322.81c0-22.195-18.16-40.35-40.35-40.35zM935.91 404.395c-44.57 0-80.7-36.13-80.7-80.7s36.13-80.7 80.7-80.7 80.7 36.13 80.7 80.7-36.13 80.7-80.7 80.7z"></path>
<path d="M209.59 538.9l457.31-457.31h-67.25c-22.195 0-53.189 12.839-68.883 28.532l-400.246 400.246c-15.693 15.693-15.693 41.372 0 57.067l346.448 346.448c15.693 15.693 41.372 15.693 57.067 0l25.268-25.268-349.71-349.71z"></path>
</svg>
