<?xml version="1.0" encoding="utf-8"?>
<svg xmlns="http://www.w3.org/2000/svg" viewBox="0 0 500 500" width="500" height="500">
  <rect width="500" height="500" rx="30" ry="30" style="stroke: rgb(0, 0, 0); fill: rgb(106, 20, 209);" id="object-0"/>
  <path fill-rule="evenodd" fill="rgb(255, 255, 255)" d="M 465.091 173.647 L 404.492 113.046 L 348.423 169.115 L 409.024 229.716 L 387.898 250.835 L 249.163 112.1 L 270.289 90.981 L 329.524 150.209 L 385.594 94.148 L 326.358 34.912 L 347.484 13.786 L 486.214 152.521 L 465.091 173.647 Z M 279.391 204.44 C 279.49 210.185 278.422 215.342 276.377 219.92 C 282.221 217.395 288.646 216.029 295.466 216.029 C 306.369 216.037 318.256 220.134 329.265 231.143 C 341.243 243.129 346.706 256.374 346.706 269.229 C 346.714 284.221 339.519 299.221 326.572 312.168 L 270.503 368.238 L 131.768 229.503 L 185.594 175.669 C 199.228 162.043 214.41 155.229 228.823 155.237 C 241.877 155.245 254.542 160.7 265.543 171.709 C 275.485 181.65 279.482 193.629 279.391 204.44 Z M 245.203 193.613 C 232.149 180.559 216.28 182.596 202.844 196.032 L 171.693 227.176 L 211.641 267.124 L 242.785 235.972 C 256.22 222.544 258.257 206.667 245.203 193.613 Z M 230.44 285.93 L 272.822 328.305 L 305.629 295.505 C 320.224 280.903 319.736 264.057 307.162 251.483 C 294.597 238.917 277.842 238.521 263.247 253.124 L 230.44 285.93 Z M 223.863 388.959 C 223.871 409.406 213.358 425.375 201.189 437.544 L 152.52 486.213 L 13.785 347.478 L 62.461 298.809 C 74.623 286.64 90.591 276.134 111.038 276.142 C 138.604 276.058 155.946 292.812 181.565 318.432 C 207.185 344.06 223.947 361.401 223.863 388.959 Z M 109.108 305.546 C 96.641 305.546 86.906 311.97 78.338 320.53 L 53.71 345.158 L 154.839 446.287 L 179.467 421.659 C 188.035 413.091 194.459 403.356 194.452 390.897 C 194.444 374.532 182.069 361.188 160.439 339.558 C 138.81 317.929 125.466 305.553 109.108 305.546 Z" style="stroke-width: 1;"/>
</svg>