<!-- Generated by IcoMoon.io -->
<svg version="1.1" xmlns="http://www.w3.org/2000/svg" width="1024" height="1024" viewBox="0 0 1024 1024" focusable="false" aria-hidden="true" fill="currentColor">
<path d="M194.999 713.596c-63.446 0-114.997 51.749-114.997 114.816 0 63.41 51.555 114.582 114.997 114.582 63.676 0 115.169-51.173 115.169-114.582-0.002-63.062-51.489-114.816-115.169-114.816zM80.131 373.565v165.593c107.819 0 209.213 42.162 285.573 118.557 76.262 76.208 118.362 178.061 118.362 286.285h166.322c-0.002-314.565-255.893-570.435-570.257-570.435zM80.328 80v165.676c384.567 0 697.576 313.314 697.576 698.324h166.096c0-476.27-387.494-864-863.672-864z"></path>
</svg>
