<svg 
 xmlns="http://www.w3.org/2000/svg"
 xmlns:xlink="http://www.w3.org/1999/xlink"
 width="512" height="512" viewBox="0 0 512 512" focusable="false" aria-hidden="true" fill="currentColor">
<path fill-rule="evenodd"
 d="M106.169 48.029c-11.385-10.983-11.385-29.218 0-40.2 10.82-10.438 27.961-10.438 38.781 0l60.34 58.209c1.714 1.654 3.171 3.472 4.369 5.406h91.253c1.2-1.933 2.656-3.752 4.369-5.406l60.339-58.209c10.82-10.438 27.961-10.438 38.781 0 11.387 10.982 11.387 29.218 0 40.2l-24.269 23.413h18.091c62.837 0 113.778 50.94 113.778 113.778v156.601c0 62.837-50.941 113.778-113.778 113.778h-284.445c-62.838 0-113.778-50.941-113.778-113.778v-156.602c0-62.838 50.94-113.778 113.778-113.778h16.662l-24.271-23.413zM113.778 126.322c-31.419 0-56.889 25.47-56.889 56.889v160.619c0 31.419 25.47 56.889 56.889 56.889h284.445c31.42 0 56.889-25.469 56.889-56.889v-160.619c0-31.419-25.469-56.889-56.889-56.889h-284.445zM142.222 237.086c0-15.709 12.735-28.445 28.445-28.445s28.445 12.735 28.445 28.445v25.43c0 15.71-12.735 28.445-28.445 28.445s-28.445-12.735-28.445-28.445v-25.43zM341.334 208.642c-15.71 0-28.445 12.735-28.445 28.445v25.43c0 15.71 12.735 28.445 28.445 28.445s28.445-12.735 28.445-28.445v-25.43c0-15.709-12.735-28.445-28.445-28.445z"/>
</svg>