<svg 
 xmlns="http://www.w3.org/2000/svg"
 xmlns:xlink="http://www.w3.org/1999/xlink"
 width="2512px" height="834px" viewBox="0 0 2515 834" focusable="false" aria-hidden="true" fill="currentColor">
<path fill-rule="evenodd" d="M2362.000,833.1000 L726.736,833.1000 C729.820,828.224 732.612,821.903 735.132,815.001 L917.929,314.608 L855.930,314.608 L748.732,629.804 L640.733,314.608 L578.734,314.608 L719.932,700.603 L689.533,785.001 C676.733,821.001 664.333,833.801 624.333,833.801 L606.734,833.801 L606.734,833.1000 L149.1000,833.1000 C67.157,833.1000 -0.000,766.843 -0.000,684.000 L-0.000,149.1000 C-0.000,67.157 67.157,-0.000 149.1000,-0.000 L2362.000,-0.000 C2444.843,-0.000 2512.000,67.157 2512.000,149.1000 L2512.000,684.000 C2512.000,766.843 2444.843,833.1000 2362.000,833.1000 ZM331.531,314.608 L247.132,314.608 L247.132,244.210 C247.132,207.810 263.532,187.010 299.931,187.010 L331.531,187.010 L331.531,137.411 L289.932,137.411 C258.732,137.411 235.132,147.411 218.333,164.211 C198.733,183.810 189.533,211.810 189.533,243.010 L189.533,314.608 L139.134,314.608 L139.134,358.208 L189.533,358.208 L189.533,708.602 L247.132,708.602 L247.132,358.208 L331.531,358.208 L331.531,314.608 ZM568.331,658.603 L537.132,658.603 C496.732,658.603 483.932,640.204 483.932,601.004 L483.932,139.011 L426.333,139.011 L426.333,603.404 C426.333,635.804 435.133,663.803 453.933,682.203 C470.333,699.003 494.732,708.602 526.732,708.602 L568.331,708.602 L568.331,658.603 ZM1347.928,192.210 C1305.929,150.211 1251.529,139.011 1201.530,139.011 L1001.533,139.011 L1001.533,708.602 L1201.530,708.602 C1251.529,708.602 1305.929,697.403 1347.928,655.403 C1404.727,599.004 1405.927,529.005 1405.927,423.807 C1405.927,318.608 1404.727,248.609 1347.928,192.210 ZM1841.128,390.607 C1863.527,368.608 1879.927,335.808 1879.927,295.009 C1879.927,249.809 1865.127,212.610 1838.328,185.810 C1808.728,156.211 1763.529,139.011 1707.530,139.011 L1486.333,139.011 L1486.333,708.602 L1716.730,708.602 C1769.929,708.602 1815.528,692.603 1846.328,661.803 C1872.727,635.404 1888.727,597.004 1888.727,547.805 C1888.727,502.606 1872.727,469.806 1850.328,447.406 C1836.328,433.407 1820.328,423.007 1803.128,416.207 C1816.728,411.007 1829.528,402.607 1841.128,390.607 ZM2372.727,139.011 L2285.928,139.011 L2285.928,382.207 L2055.532,382.207 L2055.532,139.011 L1968.733,139.011 L1968.733,708.602 L2055.532,708.602 L2055.532,459.806 L2285.928,459.806 L2285.928,708.602 L2372.727,708.602 L2372.727,139.011 ZM1707.930,631.404 L1573.132,631.404 L1573.132,457.406 L1707.930,457.406 C1767.929,457.406 1801.528,492.606 1801.528,544.205 C1801.528,595.804 1767.929,631.404 1707.930,631.404 ZM1701.130,380.207 L1573.132,380.207 L1573.132,216.210 L1701.130,216.210 C1756.329,216.210 1793.129,244.610 1793.129,298.209 C1793.129,351.808 1756.329,380.207 1701.130,380.207 ZM1189.530,631.404 L1088.332,631.404 L1088.332,216.210 L1189.530,216.210 C1224.730,216.210 1257.929,223.010 1283.529,248.609 C1317.128,282.209 1319.128,335.008 1319.128,423.807 C1319.128,512.605 1317.128,565.405 1283.529,599.004 C1257.929,624.604 1224.730,631.404 1189.530,631.404 Z"/>
</svg>